<svg xmlns="http://www.w3.org/2000/svg" xmlns:xlink="http://www.w3.org/1999/xlink" viewBox="0 0 75.93 75.93"><defs><style>.cls-1{fill:url(#radial-gradient);}</style><radialGradient id="radial-gradient" cx="17.04" cy="73.07" r="84.3" gradientUnits="userSpaceOnUse"><stop offset="0" stop-color="#ffc660"/><stop offset="0.35" stop-color="#e74556"/><stop offset="0.7" stop-color="#b725a3"/><stop offset="0.91" stop-color="#7c2ccb"/><stop offset="1" stop-color="#375bd8"/></radialGradient></defs><g id="Layer_2" data-name="Layer 2"><g id="_04-FULL-COLOR" data-name="04-FULL-COLOR"><path class="cls-1" d="M53.64,26.1a6.62,6.62,0,0,0-3.81-3.81,11,11,0,0,0-3.74-.7c-2.12-.09-2.75-.11-8.13-.11s-6,0-8.12.11a11,11,0,0,0-3.74.7,6.62,6.62,0,0,0-3.81,3.81,11,11,0,0,0-.7,3.74c-.09,2.12-.11,2.75-.11,8.13s0,6,.11,8.12a11,11,0,0,0,.7,3.74,6.62,6.62,0,0,0,3.81,3.81,11,11,0,0,0,3.74.7c2.12.09,2.75.11,8.12.11s6,0,8.13-.11a11,11,0,0,0,3.74-.7,6.62,6.62,0,0,0,3.81-3.81,11,11,0,0,0,.7-3.74c.09-2.12.11-2.75.11-8.12s0-6-.11-8.13A11,11,0,0,0,53.64,26.1ZM38,48.29A10.33,10.33,0,1,1,48.29,38,10.32,10.32,0,0,1,38,48.29ZM48.7,29.64a2.41,2.41,0,1,1,2.41-2.41A2.41,2.41,0,0,1,48.7,29.64Z"/><path class="cls-1" d="M38,0a38,38,0,1,0,38,38A38,38,0,0,0,38,0ZM58,46.26A14.73,14.73,0,0,1,57,51.14,10.3,10.3,0,0,1,51.14,57a14.73,14.73,0,0,1-4.88.94c-2.15.09-2.83.12-8.3.12s-6.14,0-8.29-.12A14.73,14.73,0,0,1,24.79,57a10.3,10.3,0,0,1-5.88-5.88A14.73,14.73,0,0,1,18,46.26c-.09-2.15-.12-2.83-.12-8.29s0-6.15.12-8.3a14.73,14.73,0,0,1,.94-4.88,10.3,10.3,0,0,1,5.88-5.88A14.73,14.73,0,0,1,29.67,18c2.15-.09,2.83-.12,8.29-.12s6.15,0,8.3.12a14.73,14.73,0,0,1,4.88.94A10.3,10.3,0,0,1,57,24.79,14.73,14.73,0,0,1,58,29.67c.09,2.15.12,2.83.12,8.3S58.05,44.11,58,46.26Z"/><circle class="cls-1" cx="37.96" cy="37.97" r="6.7"/></g></g></svg>