<svg xmlns="http://www.w3.org/2000/svg" viewBox="0 0 75.93 75.93"><defs><style>.cls-1{fill:#40dfa2;}</style></defs><g id="Layer_2" data-name="Layer 2"><g id="_04-FULL-COLOR" data-name="04-FULL-COLOR"><path class="cls-1" d="M26.92,32.73a7.48,7.48,0,1,0,7.47,7.47A7.48,7.48,0,0,0,26.92,32.73Zm-.31,11.19A3.92,3.92,0,0,1,22.69,40h0a3.92,3.92,0,1,1,3.92,3.92Z"/><path class="cls-1" d="M38,0a38,38,0,1,0,38,38A38,38,0,0,0,38,0ZM60.06,40.2a11,11,0,0,1-18.55,8.11L38,52.16l-3.54-3.85A11,11,0,1,1,19.47,32l-3.61-3.93h8a25,25,0,0,1,28.17,0h8L56.46,32A11,11,0,0,1,60.06,40.2Z"/><path class="cls-1" d="M49,32.73a7.48,7.48,0,1,0,7.47,7.47A7.48,7.48,0,0,0,49,32.73ZM48.7,43.92A3.92,3.92,0,1,1,52.62,40,3.92,3.92,0,0,1,48.7,43.92Z"/><path class="cls-1" d="M46.26,29a21.68,21.68,0,0,0-16.59,0c4.72,1.81,8.3,6,8.3,11C38,35.07,41.54,30.85,46.26,29Z"/></g></g></svg>