<svg xmlns="http://www.w3.org/2000/svg" viewBox="0 0 78 78"><defs><style>.cls-1{fill:#e17429;}</style></defs><g id="Layer_2" data-name="Layer 2"><g id="_05-FULL-WHITE" data-name="05-FULL-WHITE"><path class="cls-1" d="M39,0A39,39,0,1,0,78,39,39,39,0,0,0,39,0Zm1.34,59a12.88,12.88,0,0,1-18.77,0,13.61,13.61,0,0,1-3.88-9.8V29.74a3.88,3.88,0,0,1,1.18-3,4.11,4.11,0,0,1,5.55,0,3.9,3.9,0,0,1,1.18,3V49.29a5.68,5.68,0,0,0,1.58,4.05,5.18,5.18,0,0,0,7.62,0,5.65,5.65,0,0,0,1.61-4.07,4.71,4.71,0,0,0-1.48-3.71,5.76,5.76,0,0,0-4-1.32A3.63,3.63,0,0,1,28,43a3.89,3.89,0,0,1-1-2.71,4.14,4.14,0,0,1,1-2.79,3.58,3.58,0,0,1,2.85-1.19,13.16,13.16,0,0,1,9.55,3.63,12.43,12.43,0,0,1,3.74,9.33A13.64,13.64,0,0,1,40.34,59Zm8.83-12.8A14.82,14.82,0,0,0,34.4,31.37V25.29A20.93,20.93,0,0,1,55.26,46.23Zm10.75,0A25.62,25.62,0,0,0,34.41,20.59V14.51A31.69,31.69,0,0,1,66,46.24Z"/></g></g></svg>