<svg xmlns="http://www.w3.org/2000/svg" viewBox="0 0 75.93 75.93"><defs><style>.cls-1{fill:red;}</style></defs><g id="Layer_2" data-name="Layer 2"><g id="_04-FULL-COLOR" data-name="04-FULL-COLOR"><polygon class="cls-1" points="34.05 43.86 44.28 37.97 34.05 32.07 34.05 43.86"/><path class="cls-1" d="M38,0a38,38,0,1,0,38,38A38,38,0,0,0,38,0ZM57.61,38s0,6.37-.81,9.45a4.91,4.91,0,0,1-3.46,3.46c-3.07.81-15.38.81-15.38.81s-12.26,0-15.37-.84a4.91,4.91,0,0,1-3.46-3.46c-.81-3.05-.81-9.46-.81-9.46s0-6.37.81-9.45A5,5,0,0,1,22.59,25c3.07-.81,15.37-.81,15.37-.81s12.31,0,15.38.84a4.91,4.91,0,0,1,3.46,3.46C57.65,31.59,57.61,38,57.61,38Z"/></g></g></svg>