<svg xmlns="http://www.w3.org/2000/svg" viewBox="0 0 75.93 75.93"><defs><style>.cls-1{fill:#24a9e6;}</style></defs><g id="Layer_2" data-name="Layer 2"><g id="_04-FULL-COLOR" data-name="04-FULL-COLOR"><path class="cls-1" d="M38,0a38,38,0,1,0,38,38A38,38,0,0,0,38,0ZM52.4,29.92c0,.34,0,.68,0,1,0,10.42-7.73,22.42-21.86,22.42a21.41,21.41,0,0,1-11.78-3.54,15.78,15.78,0,0,0,1.83.11,15.21,15.21,0,0,0,9.55-3.37A7.71,7.71,0,0,1,23,41.09a7.64,7.64,0,0,0,1.44.14,7.54,7.54,0,0,0,2-.28,7.84,7.84,0,0,1-6.17-7.73v-.09a7.66,7.66,0,0,0,3.48,1,8,8,0,0,1-2.37-10.52,21.63,21.63,0,0,0,15.84,8.23A7.56,7.56,0,0,1,37,30a7.78,7.78,0,0,1,7.68-7.88,7.56,7.56,0,0,1,5.61,2.49,15.43,15.43,0,0,0,4.88-1.91,7.8,7.8,0,0,1-3.38,4.35,14.9,14.9,0,0,0,4.41-1.24A15.67,15.67,0,0,1,52.4,29.92Z"/></g></g></svg>