<svg xmlns="http://www.w3.org/2000/svg" viewBox="0 0 76.62 76.62"><defs><style>.cls-1{fill:#bd081c;}</style></defs><g id="Layer_2" data-name="Layer 2"><g id="_04-FULL-COLOR" data-name="04-FULL-COLOR"><path class="cls-1" d="M38.31,0a38.31,38.31,0,0,0-14,74c-.34-3-.64-7.69.13-11C25.18,60,29,44,29,44a13.87,13.87,0,0,1-1.14-5.69c0-5.32,3.08-9.3,6.93-9.3,3.27,0,4.85,2.45,4.85,5.4,0,3.28-2.1,8.2-3.18,12.75A5.56,5.56,0,0,0,42.11,54c6.8,0,12-7.18,12-17.54,0-9.17-6.59-15.58-16-15.58-10.9,0-17.3,8.17-17.3,16.62a14.92,14.92,0,0,0,2.85,8.74,1.16,1.16,0,0,1,.27,1.1c-.3,1.21-.94,3.81-1.07,4.35-.17.7-.55.85-1.28.51C16.84,50,13.84,43,13.84,37.39c0-12.09,8.78-23.19,25.32-23.19,13.28,0,23.61,9.47,23.61,22.13,0,13.2-8.32,23.83-19.88,23.83-3.88,0-7.53-2-8.78-4.4,0,0-1.92,7.31-2.38,9.11a43.31,43.31,0,0,1-4.76,10A38.31,38.31,0,1,0,38.31,0Z"/></g></g></svg>