<svg id="Layer_1" data-name="Layer 1" xmlns="http://www.w3.org/2000/svg" viewBox="0 0 172.31 18.22"><defs><style>.cls-1{fill:#231f20;}.cls-2{fill:#ffc425;}</style></defs><path d="M244.28,229.21V227h-.67v-.3h1.63v.3h-.69v2.21Z" transform="translate(-75.41 -226.51)"/><path d="M245.5,229.21V226.7h.41l.49,1.78.09.37c0-.1.06-.23.11-.41l.49-1.74h.37v2.51h-.26v-2.1l-.6,2.1h-.24l-.6-2.13v2.13Z" transform="translate(-75.41 -226.51)"/><path class="cls-1" d="M78.67,227H83.9l-.38,3.09c2.73-1.9,4.4-3.09,4.4-3.09H95.5l-6.75,5.21c3.87,7.28,4.4,12,4.4,12H87.46a35.8,35.8,0,0,0-3.79-9.52l-.86.54-1.41,9H75.94Z" transform="translate(-75.41 -226.51)"/><path class="cls-2" d="M93.66,244.69H87.11l-.09-.35a36.73,36.73,0,0,0-3.5-9l-.3.18-1.43,9.17H75.41l2.87-18.14h6.14l-.32,2.58c2.2-1.53,3.54-2.49,3.56-2.5l.11-.08h9.07l-7.5,5.79c3.7,7.07,4.24,11.65,4.26,11.84Zm-5.84-.91h4.8a40.4,40.4,0,0,0-4.27-11.36l-.18-.34,6-4.62H88.06c-.42.3-2,1.41-4.28,3L83,231l.44-3.58H79.06l-2.59,16.32H81L82.39,235l1.43-.88.24.38A36.06,36.06,0,0,1,87.82,243.78Z" transform="translate(-75.41 -226.51)"/><path class="cls-1" d="M107.76,244.23h4.72l1.67-11s4.93,2.58,5.61,5.84l-.6,5.12h4.77L126.06,227h-4.4l-.76,5a33.72,33.72,0,0,0-6.44-5h-3.95Z" transform="translate(-75.41 -226.51)"/><path class="cls-2" d="M124.33,244.69h-5.69l.66-5.56c-.54-2.35-3.54-4.37-4.8-5.13l-1.62,10.69h-5.65l2.89-18.14h4.46l.1.06a32.65,32.65,0,0,1,5.9,4.43l.69-4.49h5.3Zm-4.66-.91h3.86l2-16.32h-3.49l-.84,5.49-.63-.65a33.5,33.5,0,0,0-6.24-4.84H110.9l-2.6,16.32h3.79l1.71-11.21.56.3c.21.11,5.13,2.71,5.85,6.15v.07Z" transform="translate(-75.41 -226.51)"/><polygon class="cls-1" points="30.72 17.72 18.27 17.72 20.78 0.49 33.44 0.49 32.84 4.41 25.86 4.41 25.7 5.74 31.24 5.74 30.71 9.19 24.87 9.19 24.04 13.8 31.32 13.8 30.72 17.72"/><path class="cls-2" d="M106.52,244.69H93.16l2.63-18.14h13.59l-.74,4.83h-7l0,.42h5.56l-.67,4.35h-5.85l-.67,3.71h7.27Zm-12.31-.91h11.53l.46-3H98.9l1-5.53h5.83l.39-2.53H100.6l.26-2.24h7l.47-3H96.58Z" transform="translate(-75.41 -226.51)"/><path class="cls-1" d="M127.34,227l-2.12,17.23h4.17l1.29-9.52a20.53,20.53,0,0,1,2.81,7.13h2.12c2.58-5.08,5.08-7.28,5-7.05s-1.36,9.44-1.36,9.44h5.11L146.79,227h-4a25.32,25.32,0,0,0-6.82,6c-1.82-4.47-4.47-6-4.47-6Z" transform="translate(-75.41 -226.51)"/><path class="cls-2" d="M144.76,244.69h-6l.08-.52c.41-2.95.88-6.31,1.16-8.15a28.91,28.91,0,0,0-4,6l-.12.25H133.1l-.06-.38a20.79,20.79,0,0,0-2.08-5.85l-1.17,8.63h-5.08l2.23-18.14h4.7l.11.06a12.72,12.72,0,0,1,4.36,5.56,24.23,24.23,0,0,1,6.49-5.57l.1,0h4.61Zm-5-.91H144l2.29-16.32h-3.33a25,25,0,0,0-6.58,5.86l-.48.63-.3-.73a12.78,12.78,0,0,0-4.19-5.76h-3.63l-2,16.32H129l1.4-10.33.67,1a20.74,20.74,0,0,1,2.8,6.92h1.47a32.35,32.35,0,0,1,3.31-5.21c1.63-2,1.94-1.9,2.15-1.82l.39.16-.13.4C141,235.29,140.27,240.23,139.77,243.78Zm1.28-8.86h0Z" transform="translate(-75.41 -226.51)"/><path class="cls-1" d="M155.62,227c-9-.15-10,7.94-10,7.94-1,9,7.45,9.29,7.45,9.29,10.77.76,12.3-8.31,12.3-8.31C166.86,225.92,155.62,227,155.62,227Zm3.49,9.23s-1,4.55-4.62,4.55c0,0-4-.15-3.26-4.78,0,0,.38-5.16,4.32-5.69C155.55,230.31,160.63,229.86,159.11,236.23Z" transform="translate(-75.41 -226.51)"/><path class="cls-2" d="M154.37,244.73c-.41,0-.84,0-1.28,0a9.21,9.21,0,0,1-6.1-2.84,8.74,8.74,0,0,1-1.77-7,9.78,9.78,0,0,1,10.39-8.34c.47,0,5.66-.43,8.55,2.6,1.56,1.63,2.13,3.93,1.71,6.84C165.86,236.09,164.27,244.73,154.37,244.73Zm1-17.27c-8.27,0-9.22,7.22-9.26,7.53a7.94,7.94,0,0,0,1.55,6.26,8.39,8.39,0,0,0,5.47,2.53c10.23.72,11.77-7.58,11.84-7.93.37-2.61-.12-4.65-1.48-6.07-2.65-2.78-7.78-2.33-7.83-2.32h-.29Zm-.89,13.77a4.24,4.24,0,0,1-2.9-1.41,4.79,4.79,0,0,1-.82-3.87,9.78,9.78,0,0,1,.72-2.77,5.08,5.08,0,0,1,4-3.32,4.34,4.34,0,0,1,3.42,1.29c1,1.14,1.19,2.88.64,5.18C159.5,236.56,158.37,241.23,154.49,241.23Zm1.26-10.47h-.16c-3.51.47-3.91,5.22-3.91,5.26v0a3.91,3.91,0,0,0,.61,3.16,3.34,3.34,0,0,0,2.22,1.09c3.2,0,4.15-4.15,4.16-4.19h0c.47-2,.32-3.47-.45-4.36A3.32,3.32,0,0,0,155.75,230.76Z" transform="translate(-75.41 -226.51)"/><path class="cls-1" d="M167.15,227l-2.58,17.23h4.93l2-13.31H175a2.44,2.44,0,0,1,1.89,2.5,3.38,3.38,0,0,1-2.27,2.89h-2.65l-.62,4.4c1.89,2.88,8.7,3.53,8.7,3.53l.74-4.66a19.28,19.28,0,0,1-2.84-.92,6.63,6.63,0,0,0,4-4.16c.53-3.11-.15-4-.15-4a5,5,0,0,0-4.24-3.46Z" transform="translate(-75.41 -226.51)"/><path class="cls-2" d="M180.4,244.73l-.43,0c-.29,0-7.05-.71-9-3.74l-.1-.14.71-5h3a2.93,2.93,0,0,0,1.89-2.49,2,2,0,0,0-1.5-2h-3l-2,13.31H164l2.72-18.14h10.78a5.43,5.43,0,0,1,4.65,3.71c.17.3.68,1.44.19,4.3v.05a7.17,7.17,0,0,1-3.27,4c.48.16,1.08.35,1.75.51l.41.1Zm-15.3-.95h4l2-13.31h4a2.88,2.88,0,0,1,2.24,3,3.82,3.82,0,0,1-2.61,3.28l-.06,0h-2.31l-.55,3.83c1.6,2.16,6.4,2.95,7.85,3.14l.6-3.82a19.27,19.27,0,0,1-2.5-.84l-1.06-.46,1.09-.39a6.25,6.25,0,0,0,3.73-3.84c.47-2.77-.08-3.65-.08-3.66l0-.05,0,0a4.52,4.52,0,0,0-3.83-3.16h-10Z" transform="translate(-75.41 -226.51)"/><polygon class="cls-1" points="108.42 0.49 105.92 17.72 119.19 17.72 119.49 13.8 111.6 13.9 112.35 9.19 118.58 9.19 119.03 5.74 112.81 5.74 112.97 4.41 120.7 4.41 121.08 0.49 108.42 0.49"/><path class="cls-2" d="M195,244.69H180.8l2.63-18.14H197l-.47,4.83h-7.74l-.05.42H195l-.57,4.35h-6.24l-.6,3.8,7.84-.1Zm-13.16-.91h12.32l.24-3-7.93.11.89-5.64h6.22l.33-2.53h-6.21l.26-2.24h7.73l.29-3H184.22Z" transform="translate(-75.41 -226.51)"/><path class="cls-1" d="M199.67,244.23H205c3.18-8.72,5.31-11.49,5.31-11.49a16.21,16.21,0,0,1,1.36,4.93h-2.86l-1.69,4.09,5.08-.07.08,2.54h5.23A47.14,47.14,0,0,0,213.7,227H209C202.63,234.36,199.67,244.23,199.67,244.23Z" transform="translate(-75.41 -226.51)"/><path class="cls-2" d="M218,244.69h-6.13l-.08-2.54-5.32.08,2.06-5h2.65a17.13,17.13,0,0,0-.9-3.56,61.29,61.29,0,0,0-4.82,10.74l-.11.3h-6.24l.18-.59c0-.1,3-10,9.41-17.4l.14-.15H214l.12.26a47.68,47.68,0,0,1,3.83,17.41Zm-5.25-.91H217a47.28,47.28,0,0,0-3.62-16.32h-4.19c-5.27,6.15-8.17,14.12-8.91,16.32h4.36c3.11-8.45,5.18-11.2,5.27-11.32l.41-.53.34.58a16.13,16.13,0,0,1,1.42,5.11l.06.5h-3.07l-1.31,3.18,4.84-.08Z" transform="translate(-75.41 -226.51)"/><polygon class="cls-1" points="145.27 0.49 150.56 0.49 148.23 17.72 143 17.72 145.27 0.49"/><path class="cls-2" d="M224,244.69h-6.15l2.39-18.14h6.21Zm-5.11-.91h4.31l2.21-16.32h-4.37Z" transform="translate(-75.41 -226.51)"/><path class="cls-1" d="M227.33,227l-2.28,17.23h5.31L232,231h3.8a2.46,2.46,0,0,1,1.82,2.88c-.08,1.82-2.2,2.43-2.2,2.43h-2.83l-.53,4.39a12.21,12.21,0,0,0,7.91,3.53h7.27v-.73a77.19,77.19,0,0,1-8.87-4.92,5.55,5.55,0,0,0,4.4-5.69c.3-4.62-4.7-5.89-4.7-5.89Z" transform="translate(-75.41 -226.51)"/><path class="cls-2" d="M239.93,244.69a12.73,12.73,0,0,1-8.16-3.65l-.17-.16.6-5h3.17c.3-.1,1.76-.67,1.81-2v-.07a2,2,0,0,0-1.43-2.34h-3.33l-1.67,13.24h-6.23l2.4-18.14H238.2c.06,0,5.35,1.41,5.05,6.33a6,6,0,0,1-3.81,5.82,86.28,86.28,0,0,0,8,4.39l.26.12v1.47h-7.79Zm-7.37-4.17a11.85,11.85,0,0,0,7.41,3.26h6.82a77,77,0,0,1-8.65-4.83l-.82-.55,1-.26a5.06,5.06,0,0,0,4.07-5.21v-.07c.26-4-3.81-5.26-4.31-5.4H227.72l-2.15,16.32H230l1.66-13.24h4.26l.05,0a2.87,2.87,0,0,1,2.16,3.37c-.11,2.1-2.43,2.78-2.53,2.81l-.06,0H233Z" transform="translate(-75.41 -226.51)"/></svg>