<?xml version="1.0" encoding="iso-8859-1"?>
<!-- Generator: Adobe Illustrator 24.2.3, SVG Export Plug-In . SVG Version: 6.00 Build 0)  -->
<svg version="1.1" id="Layer_1" xmlns="http://www.w3.org/2000/svg" xmlns:xlink="http://www.w3.org/1999/xlink" x="0px" y="0px"
	 viewBox="0 0 24 24" style="enable-background:new 0 0 24 24;" xml:space="preserve">
<path style="fill:none;stroke:#000000;stroke-width:2;stroke-miterlimit:10;" d="M18,20H6c-1.105,0-2-0.895-2-2V6
	c0-1.105,0.895-2,2-2h12c1.105,0,2,0.895,2,2v12C20,19.105,19.105,20,18,20z"/>
<path style="fill:none;stroke:#000000;stroke-width:2;" d="M13,14c0,1.105-0.895,2-2,2s-2-0.895-2-2s0.895-2,2-2"/>
<line style="fill:none;stroke:#000000;stroke-width:2;" x1="13" y1="14" x2="13" y2="7"/>
<path style="fill:none;stroke:#000000;stroke-width:2;" d="M16,10c-1,0-3-1.358-3-3"/>
</svg>